# xmcd
#
# Track frame offsets: 
#        150
#        24018
#        49818
#        74669
#        100132
#        128166
#        156146
#        182224
#        204279
#        226248
#        251958
#        272958
#        295739
#        323195
#
# Disc length: 4742 seconds
#
# Revision: 1
# Processed by: cddbd v1.5.2PL0 Copyright (c) Steve Scherf et al.
# Submitted via: ExactAudioCopy v0.99pb5
#
DISCID=ca12840e
DTITLE=James Herriot - All Creatures Great and Small Disc 1
DYEAR=1972
DGENRE=Audio Book
TTITLE0=GS 0101
TTITLE1=GS 0102
TTITLE2=GS 0103
TTITLE3=GS 0104
TTITLE4=GS 0105
TTITLE5=GS 0106
TTITLE6=GS 0107
TTITLE7=GS 0108
TTITLE8=GS 0109
TTITLE9=GS 0110
TTITLE10=GS 0111
TTITLE11=GS 0112
TTITLE12=GS 0113
TTITLE13=GS 0114
EXTD=All Creatures Great and Small 12 CDs\nby James Harriot read by Chri
EXTD=stopherTimothy\nAudio Renassance
EXTT0=
EXTT1=
EXTT2=
EXTT3=
EXTT4=
EXTT5=
EXTT6=
EXTT7=
EXTT8=
EXTT9=
EXTT10=
EXTT11=
EXTT12=
EXTT13=
PLAYORDER=
